<?xml version="1.0" encoding="UTF-8"?>
<svg xmlns="http://www.w3.org/2000/svg" viewBox="0 0 390 1900" font-family="Inter,system-ui,sans-serif">
  <defs>
    <style>
      .bg{fill:#F8FAFC}
      .card{fill:#FFFFFF;stroke:#E2E8F0;stroke-width:1}
      .ink{fill:#0F172A}
      .muted{fill:#64748B}
      .brand{fill:#0F4C81}
      .label{font-size:9px;fill:#94A3B8;font-weight:700;letter-spacing:.1em;text-transform:uppercase}
      text{font-family:Inter,system-ui,sans-serif}
    </style>
  </defs>

  <rect width="390" height="1900" class="bg"/>
  <!-- Device frame hint -->
  <rect x="0" y="0" width="390" height="1900" fill="none" stroke="#CBD5E1" stroke-dasharray="4 4"/>

  <!-- Status bar -->
  <rect x="0" y="0" width="390" height="28" fill="#0A2647"/>
  <text x="12" y="19" fill="#C7DCEE" font-size="10">9:41</text>
  <text x="378" y="19" text-anchor="end" fill="#C7DCEE" font-size="10">◴ 📶 🔋</text>

  <!-- NAV (compact) -->
  <rect x="0" y="28" width="390" height="52" fill="#fff" stroke="#E2E8F0"/>
  <rect x="14" y="42" width="24" height="24" rx="5" fill="#0F4C81"/>
  <text x="26" y="58" fill="#fff" font-size="9" font-weight="800" text-anchor="middle">PT</text>
  <text x="46" y="60" class="ink" font-size="15" font-weight="800">PlotTrust</text>
  <!-- Hamburger + CTA -->
  <rect x="312" y="42" width="60" height="24" rx="5" fill="#0F4C81"/>
  <text x="342" y="58" text-anchor="middle" fill="#fff" font-size="11" font-weight="700">Login</text>
  <rect x="286" y="42" width="20" height="24" rx="4" fill="#fff" stroke="#E2E8F0"/>
  <path d="M 291 50 H 301 M 291 54 H 301 M 291 58 H 301" stroke="#0F172A" stroke-width="1.4" stroke-linecap="round"/>

  <!-- HERO (short) -->
  <rect x="0" y="80" width="390" height="500" fill="#0A2647"/>
  <!-- Eyebrow -->
  <rect x="14" y="106" width="362" height="22" rx="11" fill="rgba(255,255,255,.08)" stroke="rgba(255,255,255,.18)"/>
  <circle cx="26" cy="117" r="3" fill="#4ADE80"/>
  <text x="36" y="121" fill="#D9E8F5" font-size="9" font-weight="700" letter-spacing="1.2">NASHIK · PUNE · KOLHAPUR</text>

  <!-- H1 -->
  <text x="14" y="158" fill="#fff" font-family="Plus Jakarta Sans,Inter" font-size="26" font-weight="800">Find verified plots</text>
  <text x="14" y="188" fill="#fff" font-family="Plus Jakarta Sans,Inter" font-size="26" font-weight="800">with <tspan fill="#7DD3FC">7/12, Zone</tspan></text>
  <text x="14" y="218" fill="#fff" font-family="Plus Jakarta Sans,Inter" font-size="26" font-weight="800">&amp; Ready Reckoner</text>
  <!-- Sub -->
  <text x="14" y="248" fill="#C7DCEE" font-size="12">Village, Gat No., Survey No., or RERA —</text>
  <text x="14" y="264" fill="#C7DCEE" font-size="12">every listing shows land type + govt vs market.</text>

  <!-- Search (stacked on mobile) -->
  <rect x="14" y="284" width="362" height="44" rx="10" fill="#fff"/>
  <rect x="20" y="290" width="70" height="32" rx="6" fill="#F1F5F9"/>
  <text x="34" y="311" fill="#0F172A" font-size="11" font-weight="700">Village ▾</text>
  <text x="102" y="311" fill="#94A3B8" font-size="12">Search village or Gat…</text>
  <rect x="14" y="338" width="362" height="44" rx="10" fill="#F97316"/>
  <text x="195" y="365" text-anchor="middle" fill="#fff" font-size="13" font-weight="800">🔍  Search</text>

  <!-- Chips scroll -->
  <rect x="14" y="402" width="70" height="28" rx="14" fill="#fff"/>
  <text x="49" y="420" fill="#0F4C81" text-anchor="middle" font-size="11" font-weight="700">NA Plots</text>
  <rect x="90" y="402" width="80" height="28" rx="14" fill="rgba(255,255,255,.08)" stroke="rgba(255,255,255,.18)"/>
  <text x="130" y="420" fill="#E2EEFA" text-anchor="middle" font-size="11">Agriculture</text>
  <rect x="176" y="402" width="90" height="28" rx="14" fill="rgba(255,255,255,.08)" stroke="rgba(255,255,255,.18)"/>
  <text x="221" y="420" fill="#E2EEFA" text-anchor="middle" font-size="11">RERA Verified</text>
  <text x="276" y="420" fill="#7DD3FC" font-size="11">→ more</text>

  <!-- Live ticker -->
  <rect x="14" y="452" width="362" height="40" rx="8" fill="rgba(0,0,0,.25)" stroke="rgba(255,255,255,.08)"/>
  <circle cx="28" cy="472" r="3.5" fill="#4ADE80"/>
  <text x="38" y="476" fill="#C7DCEE" font-size="11">Live: 7/12 fetched for Gat 142/2, Shirwade</text>

  <!-- Trust line -->
  <text x="14" y="518" fill="#B6CBDF" font-size="11">✓ Village-level     ◆ iGR / Mahabhumi</text>
  <text x="14" y="538" fill="#B6CBDF" font-size="11">🛡 No brokerage on listings</text>

  <!-- TOOLS STRIP (2 cols mobile) -->
  <rect x="0" y="580" width="390" height="180" fill="#fff" stroke="#E2E8F0"/>
  <g transform="translate(14,598)">
    <rect x="0" y="0" width="178" height="74" rx="10" fill="#F8FAFC" stroke="#E2E8F0"/>
    <rect x="12" y="12" width="36" height="36" rx="8" fill="#EEF5FB"/>
    <text x="30" y="35" text-anchor="middle" fill="#0F4C81" font-size="14">📄</text>
    <text x="56" y="30" class="ink" font-size="13" font-weight="700">7/12 Extract</text>
    <text x="56" y="48" class="muted" font-size="10">Satbara in seconds</text>

    <g transform="translate(184,0)">
      <rect x="0" y="0" width="178" height="74" rx="10" fill="#F8FAFC" stroke="#E2E8F0"/>
      <rect x="12" y="12" width="36" height="36" rx="8" fill="#EEF5FB"/>
      <text x="30" y="35" text-anchor="middle" fill="#0F4C81" font-size="14">🗺</text>
      <text x="56" y="30" class="ink" font-size="13" font-weight="700">DP / TP Zone</text>
      <text x="56" y="48" class="muted" font-size="10">Red / Yellow / Green</text>
    </g>
    <g transform="translate(0,84)">
      <rect x="0" y="0" width="178" height="74" rx="10" fill="#F8FAFC" stroke="#E2E8F0"/>
      <rect x="12" y="12" width="36" height="36" rx="8" fill="#EEF5FB"/>
      <text x="30" y="35" text-anchor="middle" fill="#0F4C81" font-size="14">₹</text>
      <text x="56" y="30" class="ink" font-size="13" font-weight="700">Ready Reckoner</text>
      <text x="56" y="48" class="muted" font-size="10">ASR + stamp duty</text>
    </g>
    <g transform="translate(184,84)">
      <rect x="0" y="0" width="178" height="74" rx="10" fill="#F8FAFC" stroke="#E2E8F0"/>
      <rect x="12" y="12" width="36" height="36" rx="8" fill="#EEF5FB"/>
      <text x="30" y="35" text-anchor="middle" fill="#0F4C81" font-size="14">📐</text>
      <text x="56" y="30" class="ink" font-size="13" font-weight="700">UDCPR Calc</text>
      <text x="56" y="48" class="muted" font-size="10">Setback + FSI</text>
    </g>
  </g>

  <!-- FEATURED PLOTS (stacked on mobile) -->
  <text x="14" y="802" class="label">FEATURED LISTINGS</text>
  <text x="14" y="830" class="ink" font-family="Plus Jakarta Sans,Inter" font-size="20" font-weight="800">Verified plots</text>
  <text x="14" y="854" class="muted" font-size="12">Govt &amp; market value — no surprises.</text>

  <!-- Card 1 -->
  <g transform="translate(14,878)">
    <rect x="0" y="0" width="362" height="360" rx="14" fill="#fff" stroke="#E2E8F0"/>
    <rect x="0" y="0" width="362" height="140" rx="14" fill="#E2E8F0"/>
    <rect x="10" y="10" width="100" height="22" rx="11" fill="#16A34A"/>
    <text x="60" y="25" text-anchor="middle" fill="#fff" font-size="10" font-weight="700">● Green Zone · R-1</text>
    <circle cx="342" cy="22" r="12" fill="#fff"/>
    <text x="342" y="26" text-anchor="middle" font-size="11">♡</text>
    <!-- Body -->
    <text x="16" y="172" class="ink" font-family="Plus Jakarta Sans,Inter" font-size="18" font-weight="800">Gangapur</text>
    <text x="16" y="190" class="muted" font-size="11">📍 Nashik Tal, Nashik Dist.</text>
    <rect x="16" y="202" width="330" height="28" rx="6" fill="#F1F5F9"/>
    <text x="26" y="221" fill="#64748B" font-size="10" font-weight="600">GAT</text>
    <text x="46" y="221" class="ink" font-size="11" font-weight="600" font-family="JetBrains Mono,monospace">142/2-A</text>
    <text x="115" y="221" fill="#CBD5E1">·</text>
    <text x="122" y="221" fill="#64748B" font-size="10" font-weight="600">SURVEY</text>
    <text x="158" y="221" class="ink" font-size="11" font-weight="600" font-family="JetBrains Mono,monospace">58</text>
    <!-- Tags -->
    <rect x="16" y="242" width="34" height="20" rx="4" fill="#ECFDF5"/>
    <text x="33" y="256" text-anchor="middle" fill="#047857" font-size="10" font-weight="700">NA</text>
    <rect x="54" y="242" width="120" height="20" rx="4" fill="#EEF5FB"/>
    <text x="114" y="256" text-anchor="middle" fill="#0F4C81" font-size="9" font-weight="700">RERA P51600012345</text>
    <!-- Price compare -->
    <rect x="16" y="272" width="330" height="54" rx="8" fill="#F8FAFC" stroke="#E2E8F0"/>
    <text x="28" y="290" class="label" font-size="9">GOVT (ASR)</text>
    <text x="28" y="312" class="ink" font-family="Plus Jakarta Sans" font-size="16" font-weight="800">₹42.8L</text>
    <line x1="170" y1="280" x2="170" y2="320" stroke="#CBD5E1" stroke-dasharray="3 3"/>
    <text x="184" y="290" class="label" font-size="9">MARKET</text>
    <text x="184" y="312" fill="#047857" font-family="Plus Jakarta Sans" font-size="16" font-weight="800">₹58.0L</text>
    <rect x="288" y="282" width="50" height="18" rx="9" fill="#ECFDF5"/>
    <text x="313" y="295" text-anchor="middle" fill="#047857" font-size="9" font-weight="700">+35% ↑</text>
    <!-- Foot -->
    <text x="16" y="346" class="muted" font-size="11">2,400 sq.ft · 223 sq.m</text>
    <rect x="288" y="332" width="58" height="22" rx="5" fill="#0F4C81"/>
    <text x="317" y="347" text-anchor="middle" fill="#fff" font-size="11" font-weight="700">View →</text>
  </g>

  <!-- Card 2 (compact repeat) -->
  <g transform="translate(14,1258)">
    <rect x="0" y="0" width="362" height="360" rx="14" fill="#fff" stroke="#E2E8F0"/>
    <rect x="0" y="0" width="362" height="140" rx="14" fill="#E2E8F0"/>
    <rect x="10" y="10" width="110" height="22" rx="11" fill="#F59E0B"/>
    <text x="65" y="25" text-anchor="middle" fill="#0F172A" font-size="10" font-weight="700">● Yellow · Agri+NA</text>
    <text x="16" y="172" class="ink" font-family="Plus Jakarta Sans,Inter" font-size="18" font-weight="800">Shirwade</text>
    <text x="16" y="190" class="muted" font-size="11">📍 Igatpuri Tal, Nashik Dist.</text>
    <rect x="16" y="202" width="330" height="28" rx="6" fill="#F1F5F9"/>
    <text x="26" y="221" fill="#64748B" font-size="10" font-weight="600">GAT</text>
    <text x="46" y="221" class="ink" font-size="11" font-weight="600" font-family="JetBrains Mono,monospace">77/1</text>
    <rect x="16" y="242" width="130" height="20" rx="4" fill="#FEF9C3"/>
    <text x="81" y="256" text-anchor="middle" fill="#854D0E" font-size="9" font-weight="700">AGRI + NA-POTENTIAL</text>
    <rect x="16" y="272" width="330" height="54" rx="8" fill="#F8FAFC" stroke="#E2E8F0"/>
    <text x="28" y="290" class="label" font-size="9">GOVT (ASR)</text>
    <text x="28" y="312" class="ink" font-family="Plus Jakarta Sans" font-size="16" font-weight="800">₹14.2L</text>
    <text x="184" y="290" class="label" font-size="9">MARKET</text>
    <text x="184" y="312" fill="#047857" font-family="Plus Jakarta Sans" font-size="16" font-weight="800">₹22.5L</text>
    <rect x="288" y="282" width="50" height="18" rx="9" fill="#ECFDF5"/>
    <text x="313" y="295" text-anchor="middle" fill="#047857" font-size="9" font-weight="700">+58% ↑</text>
    <text x="16" y="346" class="muted" font-size="11">1 Acre · 40 Guntha</text>
    <rect x="288" y="332" width="58" height="22" rx="5" fill="#0F4C81"/>
    <text x="317" y="347" text-anchor="middle" fill="#fff" font-size="11" font-weight="700">View →</text>
  </g>

  <!-- See all CTA -->
  <rect x="14" y="1636" width="362" height="42" rx="8" fill="#fff" stroke="#0F4C81" stroke-width="1.4"/>
  <text x="195" y="1663" text-anchor="middle" fill="#0F4C81" font-size="13" font-weight="700">Browse all 840+ plots →</text>

  <!-- CTA band -->
  <rect x="0" y="1702" width="390" height="120" fill="#0F4C81"/>
  <text x="195" y="1732" text-anchor="middle" fill="#fff" font-family="Plus Jakarta Sans,Inter" font-size="18" font-weight="800">Check any plot — it's free</text>
  <text x="195" y="1752" text-anchor="middle" fill="#C7DCEE" font-size="11">7/12, Zone, Ready Reckoner — at no cost</text>
  <rect x="35" y="1768" width="150" height="36" rx="8" fill="#F97316"/>
  <text x="110" y="1791" text-anchor="middle" fill="#fff" font-size="12" font-weight="800">Start Free Search</text>
  <rect x="205" y="1768" width="150" height="36" rx="8" fill="#25D366"/>
  <text x="280" y="1791" text-anchor="middle" fill="#fff" font-size="12" font-weight="800">💬 WhatsApp</text>

  <!-- Float WhatsApp button -->
  <circle cx="350" cy="1840" r="28" fill="#25D366"/>
  <text x="350" y="1849" text-anchor="middle" fill="#fff" font-size="22">💬</text>

  <!-- Annotation -->
  <text x="14" y="1895" fill="#94A3B8" font-size="9">Mobile wireframe · 390×1900 · iPhone 13 width</text>
</svg>
